<?xml version="1.0" encoding="UTF-8" standalone="no"?>
<!-- Created with Inkscape (http://www.inkscape.org/) -->

<svg
   width="16mm"
   height="16.000078mm"
   viewBox="0 0 16 16.000078"
   version="1.1"
   id="svg1843"
   inkscape:version="1.3.2 (1:1.3.2+202404261509+091e20ef0f)"
   sodipodi:docname="skillaegis-logo.svg"
   inkscape:export-filename="skillaegis-logo.png"
   inkscape:export-xdpi="96"
   inkscape:export-ydpi="96"
   xmlns:inkscape="http://www.inkscape.org/namespaces/inkscape"
   xmlns:sodipodi="http://sodipodi.sourceforge.net/DTD/sodipodi-0.dtd"
   xmlns="http://www.w3.org/2000/svg"
   xmlns:svg="http://www.w3.org/2000/svg">
  <sodipodi:namedview
     id="namedview1845"
     pagecolor="#ffffff"
     bordercolor="#666666"
     borderopacity="1.0"
     inkscape:pageshadow="2"
     inkscape:pageopacity="0.0"
     inkscape:pagecheckerboard="0"
     inkscape:document-units="mm"
     showgrid="false"
     fit-margin-top="0"
     fit-margin-left="0"
     fit-margin-right="0"
     fit-margin-bottom="0"
     inkscape:zoom="7.2466938"
     inkscape:cx="19.319155"
     inkscape:cy="48.987857"
     inkscape:window-width="1920"
     inkscape:window-height="1131"
     inkscape:window-x="0"
     inkscape:window-y="0"
     inkscape:window-maximized="1"
     inkscape:current-layer="layer1"
     inkscape:showpageshadow="2"
     inkscape:deskcolor="#d1d1d1"
     inkscape:export-bgcolor="#374151ff" />
  <defs
     id="defs1840" />
  <g
     inkscape:label="Layer 1"
     inkscape:groupmode="layer"
     id="layer1"
     transform="translate(26.555362,-53.581388)">
    <path
       style="fill:#22d3ee;stroke-width:0.0349564;fill-opacity:1"
       d="m -18.861072,69.398564 c -0.322246,-0.24418 -0.648641,-0.470358 -0.952158,-0.659809 -1.490796,-0.930536 -2.83649,-2.087868 -3.44147,-2.959755 -0.03813,-0.05496 -0.0675,-0.03968 -0.334416,0.174061 -0.240678,0.192733 -0.286098,0.244395 -0.255906,0.291107 0.145991,0.225897 -0.129971,0.537725 -0.47613,0.538006 -0.117076,9.1e-5 -0.175106,-0.02243 -0.278504,-0.108033 -0.117242,-0.09709 -0.130606,-0.126272 -0.130606,-0.285184 0,-0.152315 0.01653,-0.192585 0.11818,-0.288481 0.129453,-0.122099 0.32398,-0.17284 0.449444,-0.117241 0.0657,0.02912 0.102548,0.0107 0.26474,-0.132275 0.103631,-0.09136 0.237005,-0.21938 0.296386,-0.284484 l 0.107959,-0.118382 -0.180096,-0.279242 c -0.316246,-0.490365 -0.667472,-1.293856 -0.836667,-1.91401 -0.0812,-0.29762 -0.0837,-0.372905 -0.09573,-2.871305 l -0.01234,-2.565668 0.222575,-0.0863 c 0.314113,-0.121796 1.755828,-0.717524 1.77521,-0.733526 0.04802,-0.03966 -0.170189,-0.268851 -0.734433,-0.771369 -0.221831,-0.197555 -0.228104,-0.200525 -0.319217,-0.151091 -0.157187,0.08529 -0.317062,0.06429 -0.469106,-0.06161 -0.129182,-0.106977 -0.134478,-0.120141 -0.117317,-0.29153 0.01572,-0.156806 0.03566,-0.192905 0.157777,-0.285587 0.192417,-0.146016 0.359475,-0.145169 0.554454,0.0027 0.135246,0.10264 0.143537,0.119997 0.144315,0.302062 8.12e-4,0.169937 0.01227,0.199445 0.09604,0.245428 0.05237,0.02874 0.3054,0.224123 0.562306,0.434173 l 0.467104,0.381903 0.154735,-0.05127 c 0.08511,-0.02819 0.916518,-0.371782 1.847581,-0.763527 l 1.692846,-0.712249 0.239871,0.100293 c 0.131925,0.05516 0.352227,0.141261 0.489559,0.191336 0.137333,0.05008 0.725071,0.283443 1.306088,0.51859 0.581017,0.235151 1.229258,0.4968 1.440535,0.581447 l 0.384145,0.1539 0.441763,-0.373196 c 0.242972,-0.205259 0.499354,-0.401161 0.569745,-0.435343 0.118369,-0.05748 0.126245,-0.07125 0.104848,-0.183201 -0.0468,-0.244848 0.186817,-0.467071 0.491284,-0.467319 0.117078,-9.3e-5 0.175108,0.02243 0.278506,0.108037 0.155175,0.128497 0.175145,0.292214 0.05546,0.454747 -0.118387,0.160785 -0.242267,0.212176 -0.459992,0.19082 l -0.186997,-0.01833 -0.398471,0.32797 c -0.219155,0.18038 -0.432089,0.379664 -0.473179,0.442849 -0.07411,0.113952 -0.0741,0.115278 10e-4,0.162796 0.112044,0.07104 1.113284,0.5043 1.497719,0.648098 l 0.334156,0.124989 -0.0054,2.079224 c -0.0054,2.102673 -0.0313,2.69217 -0.14208,3.240284 -0.115561,0.571642 -0.413313,1.286076 -0.82857,1.988113 l -0.225793,0.381715 0.125815,0.07953 c 0.0692,0.04375 0.210143,0.143937 0.313215,0.222665 0.167925,0.12827 0.206588,0.143145 0.372005,0.143145 0.230925,0 0.381218,0.08546 0.455277,0.258864 0.07535,0.176415 0.02911,0.346888 -0.129769,0.478454 -0.317491,0.262903 -0.794855,0.01265 -0.740308,-0.38809 l 0.01943,-0.14275 -0.250188,-0.166848 c -0.419632,-0.279862 -0.378331,-0.268327 -0.464157,-0.129672 -0.100237,0.161936 -0.578448,0.7066 -0.847107,0.964825 -0.641886,0.616962 -1.399722,1.201893 -2.308998,1.782182 -0.28522,0.182027 -0.725244,0.478179 -0.977812,0.658117 -0.252571,0.179933 -0.472345,0.327149 -0.48838,0.327149 -0.01605,0 -0.137827,-0.08235 -0.270649,-0.182988 z m 0.736134,-1.219948 0.170922,-0.127937 0.002,-2.343971 c 0.0018,-2.068533 -0.0048,-2.342467 -0.05568,-2.331167 -0.03171,0.0071 -0.126769,0.02136 -0.211281,0.03183 l -0.153658,0.019 -0.0099,2.441406 c -0.0078,1.943223 2e-6,2.441137 0.03842,2.440097 0.02654,-8.13e-4 0.125175,-0.05888 0.219181,-0.12924 z m -0.632482,-0.100074 c 0.02825,-0.22722 0.01067,-4.623394 -0.01862,-4.645569 -0.01056,-0.008 -0.117082,-0.02438 -0.236711,-0.03638 l -0.217508,-0.02182 v 2.308126 2.308129 l 0.19764,0.143168 c 0.108706,0.07874 0.209527,0.14317 0.224056,0.14317 0.0145,0 0.03756,-0.08947 0.05115,-0.198815 z m 1.494152,-0.60129 c 0.0131,-0.05419 0.02377,-0.883473 0.02377,-1.842855 v -1.744333 l 0.336125,-0.280034 c 0.184867,-0.154013 0.474415,-0.379074 0.64344,-0.500136 0.16902,-0.121058 0.454248,-0.343739 0.633832,-0.494848 0.179587,-0.151105 0.399991,-0.308566 0.489788,-0.34991 l 0.163258,-0.07517 2.27e-4,-0.272477 c 1.13e-4,-0.149865 0.0171,-0.322812 0.03773,-0.384325 0.03167,-0.09438 0.02263,-0.136196 -0.05784,-0.267821 -0.05246,-0.08578 -0.09538,-0.18289 -0.09538,-0.21579 0,-0.09302 0.100358,-0.231474 0.236586,-0.326396 0.166985,-0.116351 0.347572,-0.09511 0.522099,0.06142 0.201103,0.180364 0.142388,0.463704 -0.122965,0.593346 l -0.136332,0.06661 -0.001,0.418339 -10e-4,0.418337 -0.604179,0.468176 c -0.332295,0.2575 -0.831933,0.643989 -1.110303,0.858868 -0.27837,0.214877 -0.518013,0.423151 -0.532535,0.462836 -0.0145,0.03968 -0.0129,0.154196 0.0036,0.254476 0.01653,0.100284 0.03652,0.15947 0.04444,0.131524 0.01557,-0.05486 0.359679,-0.312206 0.500809,-0.374516 0.07479,-0.03303 0.08643,-0.03038 0.08643,0.01948 0,0.03169 -0.12223,0.157458 -0.271618,0.279459 -0.344464,0.281308 -0.41984,0.405485 -0.41984,0.691684 0,0.120641 0.0149,0.214572 0.03317,0.20874 0.01823,-0.0058 0.158517,-0.132277 0.311733,-0.280984 0.356459,-0.345986 0.86495,-0.783246 0.98928,-0.850709 0.09071,-0.0492 0.09964,-0.04875 0.149435,0.0076 0.126219,0.142942 0.06758,0.219255 -0.635573,0.827163 -0.341288,0.29506 -0.560857,0.514055 -0.717583,0.71572 l -0.111243,0.143143 -0.01227,0.690735 c -0.0067,0.379904 0.0025,0.712463 0.02038,0.739025 0.02577,0.03811 0.111013,-0.01702 0.404328,-0.261302 0.522323,-0.435061 0.862473,-0.78074 1.27496,-1.295697 0.422625,-0.527602 0.656198,-0.859605 0.862495,-1.22597 0.306972,-0.545141 0.665818,-1.561971 0.71238,-2.01863 0.01245,-0.122467 0.03191,-1.079672 0.04318,-2.127121 0.01131,-1.04745 0.02412,-1.917681 0.02857,-1.933848 0.0077,-0.02797 -1.956301,-0.86378 -3.321104,-1.413341 l -0.639492,-0.2575 -0.02385,0.09845 c -0.02918,0.120386 -0.02529,1.670954 0.0044,1.765099 0.01355,0.04288 0.117393,0.109294 0.284911,0.182191 0.585722,0.254868 1.130818,0.758645 1.410997,1.304046 0.07848,0.152764 0.159578,0.281723 0.180238,0.286583 0.02067,0.0049 0.12831,-0.08486 0.239228,-0.199376 l 0.201679,-0.208216 v -0.404363 c 0,-0.379071 -0.0059,-0.410975 -0.09402,-0.509903 -0.05171,-0.05804 -0.104759,-0.146003 -0.117879,-0.19547 -0.03109,-0.11716 0.09552,-0.356432 0.226055,-0.427259 0.335894,-0.182252 0.757432,0.0074 0.76357,0.343516 0.0031,0.173856 -0.09942,0.323398 -0.267047,0.38927 l -0.126533,0.04973 v 0.420859 c 0,0.469674 0.02308,0.416523 -0.350737,0.807666 -0.302878,0.31692 -0.438084,0.56425 -0.530841,0.971059 -0.133367,0.584923 -0.34725,0.922663 -0.831114,1.312408 -0.152041,0.122472 -0.439799,0.306077 -0.639463,0.408028 l -0.363031,0.185351 -0.02532,0.909309 c -0.03208,1.152003 -0.033,3.458595 -0.0012,3.484776 0.04862,0.04027 0.274407,-0.13913 0.297985,-0.236751 z m 0.740865,-1.256933 c -0.0141,-0.01168 -0.02559,-0.07441 -0.02559,-0.139441 0,-0.158949 0.239,-0.348311 0.439605,-0.348311 0.07264,0 0.140558,0.01138 0.150928,0.02527 0.03859,0.0517 -0.124601,0.284814 -0.267803,0.382561 -0.142795,0.09746 -0.243296,0.124496 -0.297122,0.07992 z m 0.694656,-0.585729 c -0.104366,-0.05034 -0.08955,-0.238351 0.02362,-0.299755 0.193673,-0.105081 0.38591,0.05353 0.292123,0.24103 -0.04973,0.09942 -0.180825,0.1238 -0.315746,0.05873 z m 0.402179,-0.57798 c -0.03835,-0.03872 -0.0597,-0.144123 -0.0511,-0.252204 0.0062,-0.07718 0.111255,-0.153371 0.211578,-0.153371 0.113115,0 0.253647,0.125839 0.253647,0.227123 0,0.157242 -0.304961,0.288652 -0.414128,0.178452 z m 0.18364,-0.923064 c -0.129962,-0.05332 -0.268898,-0.290718 -0.268898,-0.45945 0,-0.116725 0.02217,-0.154762 0.153658,-0.263644 0.136211,-0.11279 0.174375,-0.127226 0.33612,-0.12712 0.24804,1.16e-4 0.416735,0.09015 0.515475,0.274981 0.08889,0.16642 0.07577,0.28439 -0.04761,0.427871 -0.149313,0.17364 -0.461763,0.240489 -0.688746,0.147362 z m 0.851103,-1.217968 c -0.09156,-0.166409 0.04361,-0.32321 0.24292,-0.281787 0.136755,0.02843 0.14161,0.126277 0.01365,0.275083 -0.09465,0.110078 -0.1982,0.11278 -0.256564,0.0067 z m 0.096,-2.617039 c -0.0741,-0.06781 -0.08405,-0.230247 -0.01748,-0.285374 0.07506,-0.06216 0.291108,-0.04717 0.336695,0.02336 0.06095,0.0943 0.04764,0.18643 -0.03706,0.256568 -0.0957,0.07924 -0.199317,0.08124 -0.282152,0.0055 z m 0.23308,-0.597455 c -0.04355,-0.03605 -0.03249,-0.154779 0.01835,-0.196875 0.07023,-0.05816 0.107563,-0.04591 0.107563,0.03528 0,0.08555 -0.08539,0.195153 -0.125901,0.161603 z m -1.685034,-0.130485 c -0.03212,-0.03125 -0.107321,-0.128422 -0.167148,-0.215898 -0.05983,-0.08748 -0.241628,-0.273566 -0.40399,-0.413525 -0.162365,-0.139966 -0.305305,-0.278139 -0.317636,-0.307056 -0.03184,-0.07466 0.04894,-0.150238 0.183571,-0.171716 0.111435,-0.0178 0.125619,-0.0054 0.428802,0.373336 0.369025,0.461021 0.484977,0.638848 0.466993,0.716177 -0.01802,0.07754 -0.119911,0.08753 -0.190592,0.01867 z m -0.974101,-1.380568 c -0.212498,-0.09987 -0.237775,-0.295413 -0.05467,-0.422992 0.065,-0.0453 0.14365,-0.08235 0.17477,-0.08235 0.08995,0 0.271697,0.08823 0.297808,0.14457 0.0469,0.101213 0.02362,0.259288 -0.04588,0.311365 -0.09295,0.06965 -0.276951,0.09409 -0.37202,0.04941 z m -2.86452,7.310039 -0.0028,-2.169143 -0.387684,-0.206763 c -1.00059,-0.533644 -1.53311,-1.240131 -1.479147,-1.962373 0.02235,-0.299285 0.03002,-0.285392 -0.356813,-0.646032 -0.392826,-0.366217 -0.39975,-0.378506 -0.388028,-0.688505 0.0056,-0.147018 -0.0018,-0.346213 -0.01635,-0.442665 -0.02375,-0.157489 -0.03872,-0.179688 -0.146705,-0.217809 -0.363535,-0.128344 -0.42018,-0.469786 -0.116582,-0.702776 0.18862,-0.144753 0.526852,-0.09446 0.671927,0.09992 0.100698,0.134924 0.101053,0.308398 0.001,0.488584 -0.0633,0.113988 -0.07965,0.207969 -0.08032,0.461454 -2.28e-4,0.175069 0.01625,0.367657 0.03715,0.42797 0.03326,0.0961 0.359864,0.414777 0.425065,0.414777 0.01331,0 0.04617,-0.06084 0.07306,-0.135194 0.191579,-0.529833 0.725875,-1.062074 1.451833,-1.446252 l 0.278501,-0.147385 v -0.919585 c 0,-0.505773 -0.01399,-0.914813 -0.03115,-0.908981 -0.01712,0.0058 -0.891254,0.368462 -1.942482,0.80585 l -1.911317,0.795243 0.02475,0.238575 c 0.01362,0.131213 0.02963,1.09028 0.03561,2.131253 l 0.01084,1.892689 0.10531,0.413525 c 0.234939,0.922477 0.666364,1.779697 1.273742,2.530834 0.379267,0.469042 1.610476,1.620347 1.732801,1.620347 0.0381,0 0.04886,-0.158431 0.04886,-0.719415 v -0.719422 l -0.19931,-0.211019 c -0.256683,-0.271763 -0.532869,-0.540131 -0.804668,-0.781895 -0.295861,-0.263167 -0.417353,-0.420829 -0.417353,-0.541606 0,-0.05587 0.01082,-0.110564 0.0241,-0.121533 0.06953,-0.05758 0.4068,0.206381 1.138985,0.891436 0.09781,0.09151 0.188363,0.152273 0.201234,0.13503 0.01288,-0.01722 0.02929,-0.26772 0.03644,-0.556606 0.01148,-0.462705 0.0055,-0.528616 -0.05041,-0.553553 -0.03489,-0.01557 -0.417821,-0.339408 -0.850942,-0.719642 -0.756037,-0.663716 -0.95401,-0.829641 -1.142749,-0.957766 -0.08028,-0.0545 -0.0868,-0.08611 -0.09264,-0.449518 -0.0035,-0.214992 0.0095,-0.403047 0.02873,-0.417903 0.01925,-0.01486 0.07286,-0.03646 0.119116,-0.04802 0.123597,-0.0309 0.175807,0.07629 0.192641,0.395413 0.0078,0.148801 0.02105,0.287011 0.02936,0.307137 0.0083,0.02009 0.110906,0.08926 0.228025,0.153635 0.117121,0.06437 0.286782,0.191052 0.377033,0.281504 0.09025,0.09045 0.471006,0.432398 0.846127,0.759871 l 0.682038,0.595402 v 0.810107 c 0,0.445558 0.01344,0.843246 0.02979,0.883755 0.01638,0.04051 0.01981,0.474444 0.0076,0.964317 l -0.02217,0.890673 0.127994,0.104673 c 0.0704,0.05757 0.144764,0.0961 0.165264,0.0856 0.02354,-0.01204 0.03629,-0.81822 0.03462,-2.188216 z m -1.27077,0.66131 c -0.05599,-0.02517 -0.181587,-0.133687 -0.279109,-0.241121 -0.09753,-0.107435 -0.245831,-0.236426 -0.329557,-0.286652 -0.250974,-0.150543 -0.244523,-0.346374 0.0114,-0.346374 0.122945,0 0.192206,0.0517 0.665224,0.496574 0.152909,0.143816 0.206687,0.219484 0.206687,0.290839 0,0.135373 -0.09785,0.16627 -0.274657,0.08673 z m -1.210571,-1.1756 c -0.188403,-0.109278 -0.12198,-0.366554 0.09465,-0.366554 0.224711,0 0.33299,0.138067 0.232397,0.296329 -0.08052,0.12666 -0.189421,0.150043 -0.327046,0.07023 z m 1.447429,-0.524646 c -0.0242,-0.03747 -0.0363,-0.0852 -0.02689,-0.106104 0.0094,-0.02088 0.03695,0.0034 0.06119,0.05389 0.05287,0.110251 0.02786,0.148362 -0.03429,0.05221 z m -0.229633,-0.163681 c -0.103908,-0.08604 -0.270374,-0.308732 -0.270374,-0.361684 0,-0.0099 0.05105,0.0039 0.113432,0.03059 0.134443,0.05757 0.366484,0.321331 0.308697,0.350901 -0.02158,0.01105 -0.02929,0.03341 -0.01712,0.0497 0.04425,0.0593 -0.0177,0.0273 -0.134618,-0.06949 z m -1.600851,-0.184611 c -0.176068,-0.0889 -0.265153,-0.298108 -0.205308,-0.482142 0.05274,-0.162188 0.246872,-0.329653 0.414291,-0.357382 0.261333,-0.04328 0.586504,0.12492 0.635763,0.328853 0.03079,0.127516 -0.03802,0.356382 -0.1324,0.44026 -0.148409,0.131909 -0.518167,0.168458 -0.712346,0.07041 z m -0.567959,-1.240348 c -0.09612,-0.08795 -0.0674,-0.238343 0.04812,-0.251892 0.103109,-0.01206 0.236925,0.07469 0.236925,0.153649 0,0.0574 -0.114753,0.159052 -0.17954,0.159052 -0.02149,0 -0.06894,-0.02736 -0.105498,-0.06081 z m -0.115074,-0.825516 c -0.01262,-0.01694 -0.0053,-0.06936 0.01633,-0.116471 0.03187,-0.06939 0.04971,-0.07852 0.09403,-0.04806 0.03657,0.02514 0.04469,0.06001 0.02451,0.105203 -0.0341,0.07634 -0.100396,0.105499 -0.134856,0.05933 z m 0.437057,-0.68031 c -0.293374,-0.122505 -0.322951,-0.36899 -0.07019,-0.584948 0.217674,-0.185968 0.461102,-0.167284 0.63683,0.04889 0.100122,0.12316 0.111136,0.245468 0.03559,0.3952 -0.114436,0.226788 -0.295188,0.26907 -0.602226,0.14086 z m -0.337018,-1.106629 c -0.09924,-0.07656 -0.10639,-0.149081 -0.02428,-0.24616 0.07465,-0.08826 0.207106,-0.0907 0.317102,-0.0058 0.09924,0.07656 0.106384,0.149081 0.02425,0.246161 -0.07465,0.08826 -0.207109,0.09069 -0.3171,0.0058 z m 1.491756,-0.690623 c 0.0013,-0.108855 0.145011,-0.31488 0.459296,-0.660054 0.175233,-0.192449 0.337854,-0.360423 0.361392,-0.373273 0.07204,-0.03933 0.178428,-0.02699 0.201799,0.02341 0.04299,0.09277 -0.02469,0.193523 -0.301644,0.449075 -0.153955,0.142058 -0.3533,0.338879 -0.442979,0.437387 -0.161953,0.177879 -0.279482,0.230087 -0.277864,0.123424 z m 0.87727,-1.434135 c -0.148742,-0.110049 -0.16016,-0.258982 -0.02873,-0.374823 0.119965,-0.10574 0.28071,-0.09918 0.421255,0.01722 0.139264,0.115321 0.143165,0.221665 0.01283,0.349917 -0.125195,0.123204 -0.246135,0.125503 -0.405357,0.0077 z m 2.671884,4.840602 c 0.462863,-0.0958 1.044733,-0.401526 1.340183,-0.704167 0.34543,-0.353842 0.52624,-0.803607 0.52624,-1.309022 0,-0.488505 -0.170576,-0.890346 -0.538438,-1.268462 -0.355093,-0.364985 -0.977298,-0.647982 -1.458452,-0.72007 -0.213585,-0.032 0.06237,-0.07662 0.0139,-0.01613 0,0 -0.942676,0.03529 -0.988014,0.01638 -0.263381,-0.109784 0.307176,-0.09308 -0.08868,0.01473 -0.815108,0.222028 -1.243539,0.498552 -1.560334,1.007081 -0.300137,0.481787 -0.356838,0.813547 -0.238299,1.39428 0.141542,0.693427 0.642911,1.194533 1.509551,1.508758 0.447489,0.162251 0.944448,0.187931 1.482376,0.0766 z m -1.129896,-0.410073 c -0.444959,-0.102247 -0.92753,-0.412233 -1.161828,-0.746316 -0.355165,-0.506415 -0.353869,-1.181906 0.0035,-1.730225 0.216455,-0.332281 0.801068,-0.640842 1.463606,-0.772515 0.259675,-0.05161 0.28648,-0.05149 0.530132,0.0023 0.541703,0.119526 0.814045,0.23943 1.127438,0.496369 0.328649,0.269454 0.466957,0.476555 0.559952,0.8385 0.08168,0.317857 0.04927,0.609767 -0.10339,0.931475 -0.217582,0.458517 -0.508367,0.696733 -1.10709,0.906961 -0.258567,0.09079 -0.342987,0.104426 -0.69752,0.112664 -0.275225,0.0064 -0.470462,-0.006 -0.614631,-0.03917 z m 1.283514,-0.454521 c 0.379529,-0.15573 0.572352,-0.325631 0.718647,-0.63322 0.122456,-0.257459 0.121425,-0.70841 -0.0025,-0.972393 -0.105908,-0.226122 -0.452035,-0.544461 -0.726452,-0.668139 -0.241735,-0.108945 -0.707704,-0.163643 -1.001291,-0.11754 -0.446354,0.0701 -0.929889,0.373801 -1.124741,0.706441 -0.188353,0.321544 -0.227551,0.632607 -0.113996,0.904664 0.171798,0.411615 0.488088,0.695802 0.956,0.858968 0.193097,0.06734 0.269759,0.07606 0.592042,0.06735 0.347153,-0.0094 0.3909,-0.01846 0.702013,-0.146133 z m -1.101123,-0.271162 c -0.410073,-0.126678 -0.719335,-0.494795 -0.719978,-0.856992 -8.12e-4,-0.320968 0.235647,-0.6385 0.590883,-0.794308 0.237895,-0.104345 0.740998,-0.100309 0.997052,0.008 0.76679,0.324324 0.764956,1.208823 -0.0034,1.581634 -0.210058,0.101941 -0.635983,0.132321 -0.864668,0.06167 z m 0.32005,-0.83787 c 0.123381,-0.06035 0.246214,-0.24291 0.204513,-0.303944 -0.138097,-0.202127 -0.382727,-0.243763 -0.588763,-0.100202 -0.09643,0.0672 -0.118191,0.106253 -0.118191,0.212212 0,0.0762 0.02629,0.1539 0.06358,0.18803 0.0808,0.07393 0.291874,0.07581 0.438865,0.004 z m 0.70281,-2.494489 c 0.03068,-0.127092 0.03041,-0.495899 -0.001,-1.273031 l -0.02505,-0.61923 -0.22465,-0.09756 -0.224652,-0.09756 v 1.058138 1.058139 l 0.182474,0.03148 c 0.26956,0.04653 0.266953,0.04707 0.292902,-0.06039 z m -0.891392,0.0078 c 0.03121,-0.02397 0.05466,-0.920154 0.04147,-1.586391 -0.0075,-0.378179 -0.02085,-0.485098 -0.06064,-0.485098 -0.02807,0 -0.131788,0.04428 -0.230488,0.09843 l -0.179449,0.09843 v 0.965702 0.965705 l 0.201676,-0.0185 c 0.110921,-0.01019 0.213262,-0.0274 0.227426,-0.03826 z m 2.805384,10.232545 c -0.110054,-0.09113 -0.02112,-0.216307 0.153656,-0.216307 0.09362,0 0.10756,0.01221 0.10756,0.09431 0,0.129775 -0.161013,0.204968 -0.261216,0.121995 z m -5.301178,-0.03179 c -0.08205,-0.06795 -0.05534,-0.181368 0.04775,-0.202798 0.120554,-0.02504 0.175046,0.0041 0.175046,0.09334 0,0.07614 -0.0651,0.147628 -0.134449,0.147628 -0.02326,0 -0.063,-0.01714 -0.08835,-0.03817 z m -0.822215,-0.490907 c -0.09511,-0.07876 -0.01539,-0.202552 0.130454,-0.202552 0.130648,0 0.174004,0.06746 0.113742,0.176983 -0.04922,0.08946 -0.15381,0.10041 -0.244196,0.02558 z m 6.922408,-0.01214 c 0,-0.01773 0.05958,-0.08574 0.132408,-0.151094 0.110696,-0.09933 0.143765,-0.113031 0.201675,-0.08354 0.101703,0.05179 0.08469,0.11478 -0.04597,0.170263 -0.06338,0.02692 -0.121005,0.05967 -0.128051,0.07279 -0.01932,0.03603 -0.160059,0.0286 -0.160059,-0.0084 z m -7.642916,-0.522881 c -0.104233,-0.103995 0.086,-0.261523 0.211594,-0.175206 0.07233,0.04971 0.07074,0.109035 -0.0046,0.17141 -0.07533,0.06238 -0.146978,0.0637 -0.207006,0.0039 z m 8.412737,5e-6 c -0.05919,-0.05906 -0.03713,-0.157089 0.03807,-0.169083 0.10159,-0.01623 0.203252,0.06928 0.173797,0.146126 -0.03027,0.07901 -0.143399,0.09127 -0.211864,0.02298 z m -8.905971,-0.373704 c -0.109861,-0.09097 -0.0088,-0.22984 0.153463,-0.210794 0.16238,0.01902 0.122744,0.248969 -0.04292,0.248969 -0.03545,0 -0.08519,-0.01719 -0.110539,-0.03817 z m 9.37746,-2.28e-4 c -0.08234,-0.08795 -0.08744,-0.117293 -0.02887,-0.165802 0.06949,-0.05755 0.268368,-0.06744 0.307292,-0.01529 0.03174,0.04252 -0.103444,0.199946 -0.182837,0.212906 -0.0314,0.0051 -0.07441,-0.0092 -0.09559,-0.03183 z m 1.719663,-2.137511 c -0.02631,-0.02626 -0.03659,-0.07704 -0.02288,-0.11287 0.03147,-0.08205 0.240271,-0.09194 0.276806,-0.0131 0.05492,0.118513 -0.156369,0.223333 -0.253943,0.125979 z m -12.86879,-0.03178 c -0.08153,-0.08135 -0.03496,-0.162117 0.09349,-0.162117 0.101853,0 0.114717,0.01067 0.114717,0.09543 0,0.07253 -0.01925,0.09771 -0.08019,0.104915 -0.04411,0.0052 -0.101718,-0.01198 -0.128021,-0.03823 z m -0.387215,-0.686974 c -0.02922,-0.04521 -0.02922,-0.08204 0,-0.127242 0.06798,-0.105189 0.268899,-0.07175 0.268899,0.04476 0,0.141365 -0.192653,0.200461 -0.268899,0.08248 z m 13.752733,0.01633 c -0.05799,-0.05786 -0.02057,-0.20277 0.05884,-0.228007 0.13905,-0.04418 0.22511,0.130716 0.110865,0.225317 -0.07516,0.06224 -0.109476,0.06278 -0.16971,0.0027 z m -14.038097,-0.670702 c -0.07142,-0.05913 -0.07203,-0.06338 -0.0206,-0.14296 0.04444,-0.06878 0.189293,-0.0818 0.259866,-0.02337 0.06922,0.05732 0.05554,0.146267 -0.02818,0.183376 -0.100949,0.04474 -0.140276,0.04156 -0.21106,-0.01702 z m 14.326616,-0.03341 c -0.07487,-0.06199 -0.06363,-0.135641 0.02799,-0.18342 0.07833,-0.04085 0.194422,0.0047 0.2132,0.08345 0.01177,0.04944 -0.08657,0.151549 -0.14597,0.151549 -0.01813,0 -0.06096,-0.0232 -0.09522,-0.05158 z m 0.169366,-0.666807 c -0.07256,-0.0724 0.0031,-0.156385 0.140784,-0.156385 0.07585,0 0.114701,0.01796 0.123831,0.0572 0.02949,0.126743 -0.164226,0.199348 -0.264615,0.09919 z m -14.733666,-0.02726 c -0.04441,-0.09584 0.0025,-0.160908 0.116038,-0.160908 0.137742,0 0.213346,0.08398 0.140782,0.156385 -0.0631,0.06296 -0.228393,0.06587 -0.25682,0.0046 z m -0.111374,-0.623674 c -0.03393,-0.08855 0.04947,-0.162803 0.169834,-0.151178 0.184072,0.0178 0.132565,0.216326 -0.05612,0.216326 -0.0557,0 -0.09804,-0.02428 -0.113715,-0.06515 z m 14.988568,0.04395 c -0.03027,-0.02507 -0.03448,-0.183516 -0.0055,-0.207514 0.01106,-0.0092 0.0631,-0.0098 0.115655,-0.0018 0.113025,0.01791 0.175322,0.156785 0.09032,0.201364 -0.06352,0.0333 -0.16483,0.0372 -0.200474,0.0077 z m -15.19986,-0.705704 c -0.185323,-0.08155 -0.263084,-0.271178 -0.174558,-0.42566 0.166984,-0.29139 0.631142,-0.278349 0.750486,0.02108 0.05746,0.144176 -0.02601,0.311953 -0.198476,0.399037 -0.157036,0.07928 -0.20816,0.08003 -0.377452,0.0055 z m 15.16992,-0.03046 c -0.09693,-0.07172 -0.124423,-0.12073 -0.139211,-0.248164 -0.01747,-0.150778 -0.01133,-0.163936 0.121515,-0.260539 0.18683,-0.135841 0.367267,-0.138853 0.524368,-0.0087 0.198435,0.16432 0.12264,0.471193 -0.138723,0.561621 -0.18288,0.06328 -0.230459,0.05757 -0.367947,-0.04415 z m -14.97725,-1.151216 c 0,-0.09305 0.0081,-0.09882 0.124845,-0.08949 0.104354,0.0083 0.124848,0.02304 0.124848,0.08949 0,0.06647 -0.02047,0.08116 -0.124848,0.08949 -0.116796,0.0093 -0.124845,0.0036 -0.124845,-0.08949 z m 15.034872,0.04985 c -0.04124,-0.08899 0.01543,-0.150267 0.128958,-0.139453 0.08406,0.008 0.105862,0.02644 0.105862,0.08961 0,0.06315 -0.0218,0.0816 -0.105862,0.08961 -0.06903,0.0066 -0.113896,-0.0073 -0.128958,-0.03976 z m -0.123187,-0.47133 c 0.01507,-0.08804 0.151492,-0.111662 0.224444,-0.03888 0.04362,0.04352 0.04309,0.05623 -0.0034,0.08057 -0.03034,0.01587 -0.09525,0.02911 -0.144253,0.02938 -0.07056,2.26e-4 -0.08655,-0.0144 -0.07683,-0.07109 z M -26.036351,60.1659 c 0,-0.05525 0.01963,-0.06598 0.105641,-0.05778 0.06289,0.006 0.105636,0.02939 0.105636,0.05778 0,0.02839 -0.04274,0.05179 -0.105636,0.05778 -0.08602,0.0082 -0.105641,-0.0027 -0.105641,-0.05778 z m 0.192485,-0.492639 c -0.02768,-0.02764 -0.03709,-0.08135 -0.0226,-0.129171 0.02113,-0.06973 0.04314,-0.0804 0.148351,-0.07198 0.143879,0.01153 0.186937,0.111883 0.08441,0.196777 -0.07768,0.06433 -0.148605,0.0658 -0.210169,0.0045 z m 14.442422,-0.0013 c -0.03779,-0.0377 -0.03877,-0.06683 -0.0043,-0.129412 0.05367,-0.09755 0.181062,-0.09397 0.261895,0.0074 0.04725,0.05923 0.04623,0.07442 -0.0079,0.119287 -0.07819,0.06474 -0.186294,0.06594 -0.249616,0.0027 z m -14.151034,-0.597258 c -0.04218,-0.02555 -0.06351,-0.0715 -0.05536,-0.119289 0.01072,-0.06274 0.03551,-0.07774 0.128493,-0.07774 0.09109,0 0.117875,0.01537 0.127796,0.07332 0.01196,0.06968 -0.04935,0.165251 -0.10595,0.165251 -0.0145,0 -0.05724,-0.01869 -0.09498,-0.04154 z m 13.904718,-0.04755 c -0.03596,-0.09382 0.01515,-0.165377 0.118126,-0.165377 0.174537,0 0.160559,0.194765 -0.01558,0.216568 -0.05104,0.0063 -0.08752,-0.01189 -0.102584,-0.05119 z m -3.239108,-3.351323 c -0.06622,-0.05484 -0.05985,-0.184013 0.01018,-0.206262 0.09247,-0.02938 0.255993,0.07704 0.242148,0.157601 -0.0139,0.08069 -0.175903,0.111941 -0.252318,0.04867 z m -7.361529,-0.04989 c -0.01283,-0.01059 -0.02336,-0.04559 -0.02336,-0.07765 0,-0.0673 0.08664,-0.07747 0.147005,-0.01722 0.03048,0.03041 0.02281,0.05056 -0.02958,0.07765 -0.03891,0.02011 -0.08124,0.02788 -0.09408,0.01722 z m 0.420999,-0.26084 c -0.07876,-0.07208 -0.068,-0.156426 0.02622,-0.205561 0.13918,-0.07258 0.29003,0.111777 0.180715,0.220844 -0.06264,0.0625 -0.127135,0.05773 -0.206941,-0.01529 z m 6.393811,-0.01785 c -0.06267,-0.06253 -0.01925,-0.197939 0.0711,-0.221681 0.115817,-0.03045 0.19739,0.01377 0.19739,0.106978 0,0.147117 -0.165243,0.217716 -0.268485,0.114703 z m -5.722388,-0.284949 c -0.02531,-0.02528 -0.04043,-0.07896 -0.03351,-0.119284 0.0097,-0.05659 0.04076,-0.07558 0.136083,-0.08321 0.105039,-0.0084 0.127224,0.0023 0.148201,0.0715 0.01355,0.04477 0.0147,0.102894 0.0025,0.129175 -0.02822,0.06089 -0.192898,0.06208 -0.253284,0.0018 z m 4.95577,-0.03148 c -0.02515,-0.02511 -0.04024,-0.09309 -0.03351,-0.151091 0.01075,-0.09275 0.02559,-0.105463 0.12328,-0.105463 0.151233,0 0.203958,0.07617 0.14052,0.203 -0.05322,0.106383 -0.153883,0.129794 -0.230287,0.05355 z m -4.264673,-0.255168 c -0.05717,-0.05704 -0.02083,-0.112726 0.07359,-0.112726 0.06471,0 0.117085,0.05808 0.117085,0.129844 0,0.04639 -0.139583,0.03387 -0.190676,-0.01712 z m 3.506473,-0.03693 c -0.03735,-0.0806 0.03785,-0.218947 0.119021,-0.218947 0.119316,0 0.161669,0.09223 0.08617,0.187648 -0.07398,0.09349 -0.169608,0.108078 -0.205188,0.03129 z m -2.946858,-0.08072 c -0.07115,-0.08411 -0.01956,-0.185939 0.0942,-0.185939 0.103958,0 0.180966,0.139018 0.114017,0.20582 -0.06779,0.06764 -0.140023,0.06074 -0.208219,-0.01989 z m 2.377691,-0.05869 c -0.01455,-0.01951 -0.01582,-0.07041 -0.0027,-0.113151 0.0173,-0.05694 0.04968,-0.07772 0.121292,-0.07772 0.08713,0 0.09643,0.01123 0.0857,0.103388 -0.0091,0.07773 -0.03259,0.105802 -0.09485,0.113151 -0.04554,0.0054 -0.09471,-0.0062 -0.109255,-0.02565 z m -1.214663,-0.107285 c -0.122807,-0.05071 -0.341122,-0.296431 -0.341122,-0.383962 0,-0.04002 0.03742,-0.114058 0.08314,-0.164524 0.123381,-0.136179 0.389123,-0.362154 0.42589,-0.362154 0.06575,0 0.408625,0.293945 0.44575,0.382139 0.0317,0.07527 0.02133,0.120143 -0.05807,0.252121 -0.14179,0.235611 -0.374232,0.351246 -0.555583,0.27638 z"
       id="path81-3-7"
       sodipodi:nodetypes="sssssssssssscssscssssssssssscsscsssscssssssscsscscssscsssssscssssssssccssscssscssscccssscscssssccscsssscccssssssssssssssscssssssssscsssssscsssssscssssscscccsssssssssssssssssscssssssssssssssssssssssssssssssssccssssssssscsssscsssccscsssscssscsssssssssssssscssccssccsssssssssssssssssssssssssssssssssscsssssssssssssscssssscssssssssssssssssssssssssssssssssssssssssssssssssscssssscscccccsccssssccccssssssssssssssssssssssssssssssscsscssscssssssssssssssssssssssssssssssssssssssssssssssssssssssssssssssssssssssssscsssssssssssssssssssssssssssssssssssssssssssscsscssssccssssssssssssssssssssssssssssssss" />
  </g>
</svg>
