<?xml version="1.0" encoding="UTF-8" standalone="no"?>
<!-- Created with Inkscape (http://www.inkscape.org/) -->

<svg
   width="38.81966mm"
   height="8.0263996mm"
   viewBox="0 0 38.81966 8.0263996"
   version="1.1"
   id="svg1"
   xmlns="http://www.w3.org/2000/svg"
   xmlns:svg="http://www.w3.org/2000/svg">
  <defs
     id="defs1" />
  <g
     id="layer1"
     transform="translate(-37.910846,-69.366373)">
    <path
       style="-inkscape-font-specification:'Oxanium, Bold'"
       d="m 143.28509,284.44412 v -2.496 h 9.92 q 0.96,0 0.96,-0.96 v -2.336 q 0,-0.896 -0.8,-1.056 l -6.24,-1.248 q -3.84,-0.768 -3.84,-5.152 v -1.792 q 0,-5.376 5.376,-5.376 h 7.328 l 2.144,1.664 v 2.496 h -9.28 q -0.96,0 -0.96,0.96 v 2.08 q 0,0.896 0.8,1.056 l 6.24,1.248 q 3.84,0.768 3.84,5.152 v 2.048 q 0,5.376 -5.376,5.376 h -7.968 z m 19.45598,1.664 v -23.68 h 4.416 v 13.152 l 5.856,-6.368 h 4.352 l 0.352,0.736 -5.856,6.304 6.304,9.12 -0.352,0.736 h -4.32 l -4.544,-6.688 -1.792,1.952 v 4.736 z m 18.496,-19.648 v -4.288 h 4.544 v 4.288 z m 0.064,19.648 v -16.896 h 4.416 v 16.896 z m 8.89599,-6.144 v -17.536 h 4.416 v 17.984 q 0,1.984 2.048,2.176 v 3.84 q -6.464,0 -6.464,-6.464 z m 9.91998,0 v -17.536 h 4.416 v 17.984 q 0,1.984 2.048,2.176 v 3.84 q -6.464,0 -6.464,-6.464 z m 8.31998,5.28 6.56,-21.216 h 7.04 l 6.56,21.216 -0.576,0.864 h -3.84 l -1.344,-4.48 h -8.64 l -1.344,4.48 h -3.84 z m 7.008,-7.776 h 6.144 l -2.816,-9.28 h -0.512 z m 15.77601,3.456 v -6.528 q 0,-5.184 5.184,-5.184 h 4.16 q 5.184,0 5.184,5.184 v 4.928 h -10.112 v 1.92 q 0,1.024 1.024,1.024 h 8.448 v 2.4 l -1.92,1.44 h -6.784 q -5.184,0 -5.184,-5.184 z m 4.416,-5.056 h 5.696 v -1.792 q 0,-1.024 -1.024,-1.024 h -3.648 q -1.024,0 -1.024,1.024 z m 14.08003,5.056 v -6.528 q 0,-5.184 5.184,-5.184 h 9.344 v 18.112 q 0,5.184 -5.184,5.184 h -5.984 l -1.92,-1.44 v -2.4 h 7.648 q 1.024,0 1.024,-1.024 v -1.536 h -4.928 q -5.184,0 -5.184,-5.184 z m 4.416,0.32 q 0,1.024 1.024,1.024 h 4.672 v -9.216 h -4.672 q -1.024,0 -1.024,1.024 z m 14.52802,-14.784 v -4.288 h 4.544 v 4.288 z m 0.064,19.648 v -16.896 h 4.416 v 16.896 z m 8.44799,-1.44 v -2.4 h 7.36 q 1.088,0 1.088,-1.216 0,-1.248 -0.96,-1.408 l -3.456,-0.576 q -4.032,-0.672 -4.032,-4.672 0,-5.184 5.184,-5.184 h 4.96 l 1.92,1.44 v 2.4 h -6.592 q -1.088,0 -1.088,1.216 0,1.248 0.96,1.408 l 3.456,0.576 q 4.032,0.672 4.032,4.672 0,5.184 -5.184,5.184 h -5.728 z"
       id="text1"
       transform="scale(0.26458333)"
       aria-label="SkillAegis" />
  </g>
</svg>
